<svg width="47" height="47" viewBox="0 0 47 47" fill="none" xmlns="http://www.w3.org/2000/svg">
<path d="M42.5938 1.10173H4.40625C3.5398 1.09291 2.70524 1.42818 2.08569 2.03396C1.46615 2.63974 1.11222 3.46655 1.10156 4.33298V42.6747C1.11414 43.5398 1.46892 44.3648 2.08826 44.969C2.7076 45.5732 3.54106 45.9074 4.40625 45.8986H42.5938C43.4603 45.9055 44.2942 45.5691 44.9135 44.9629C45.5327 44.3568 45.8868 43.5301 45.8984 42.6637V4.32197C45.883 3.45808 45.5272 2.63521 44.9084 2.03221C44.2896 1.42921 43.4577 1.09482 42.5938 1.10173Z" fill="#0076B2"/>
<path d="M7.73285 17.8931H14.3826V39.2891H7.73285V17.8931ZM11.0596 7.24463C11.8223 7.24463 12.5678 7.47084 13.2019 7.89465C13.836 8.31846 14.3302 8.92081 14.6219 9.62552C14.9136 10.3302 14.9897 11.1056 14.8407 11.8536C14.6916 12.6016 14.3241 13.2886 13.7845 13.8276C13.2449 14.3667 12.5576 14.7336 11.8095 14.8819C11.0614 15.0303 10.286 14.9534 9.5816 14.661C8.87717 14.3687 8.27528 13.8739 7.85208 13.2394C7.42888 12.6049 7.20338 11.8591 7.2041 11.0964C7.20508 10.0745 7.61171 9.09482 8.33464 8.37257C9.05758 7.65032 10.0377 7.24463 11.0596 7.24463ZM18.5539 17.8931H24.9282V20.8306H25.0164C25.905 19.1488 28.0714 17.3753 31.3063 17.3753C38.0405 17.3606 39.2889 21.7926 39.2889 27.5391V39.2891H32.6392V28.8793C32.6392 26.4008 32.5951 23.2099 29.1839 23.2099C25.7728 23.2099 25.1926 25.9124 25.1926 28.7178V39.2891H18.5539V17.8931Z" fill="white"/>
</svg>
