<svg width="39" height="44" viewBox="0 0 39 44" fill="none" xmlns="http://www.w3.org/2000/svg">
<path d="M28.7849 15.8434C31.6188 17.8682 35.0906 19.0595 38.8401 19.0595V11.8481C38.1304 11.8484 37.4227 11.7743 36.7284 11.6272V17.3036C32.9792 17.3036 29.5079 16.1125 26.6734 14.0878V28.8045C26.6734 36.1666 20.7021 42.1342 13.3368 42.1342C10.5886 42.1342 8.03422 41.3038 5.91235 39.8796C8.33417 42.3547 11.7116 43.89 15.4479 43.89C22.8138 43.89 28.7852 37.9223 28.7852 30.5599V15.8434H28.7849ZM31.39 8.56797C29.9417 6.98655 28.9907 4.94282 28.7849 2.68335V1.75586H26.7838C27.2876 4.62754 29.0058 7.08092 31.39 8.56797ZM10.5709 34.2303C9.76165 33.17 9.32424 31.8727 9.3263 30.5388C9.3263 27.1718 12.0575 24.4417 15.4271 24.4417C16.055 24.4413 16.6792 24.5377 17.2777 24.7273V17.3546C16.5783 17.2589 15.8724 17.2181 15.1669 17.2331V22.9716C14.5681 22.7819 13.9436 22.6856 13.3154 22.6861C9.94594 22.6861 7.21491 25.4159 7.21491 28.7834C7.21491 31.1645 8.57997 33.226 10.5709 34.2303Z" fill="#FF004F"/>
<path d="M26.6736 14.0877C29.5082 16.1123 32.9792 17.3035 36.7286 17.3035V11.627C34.6358 11.1814 32.7831 10.0884 31.3901 8.56797C29.0057 7.08077 27.2878 4.62739 26.784 1.75586H21.5279V30.5596C21.5159 33.9176 18.7894 36.6365 15.427 36.6365C13.4458 36.6365 11.6855 35.6926 10.5708 34.2301C8.58018 33.226 7.21497 31.1644 7.21497 28.7835C7.21497 25.4163 9.946 22.6862 13.3155 22.6862C13.9611 22.6862 14.5833 22.7866 15.167 22.9718V17.2332C7.93095 17.3827 2.11157 23.292 2.11157 30.5598C2.11157 34.1878 3.56069 37.4767 5.91272 39.8799C8.03458 41.3038 10.5889 42.1345 13.3372 42.1345C20.7026 42.1345 26.6737 36.1664 26.6737 28.8045L26.6736 14.0877Z" fill="black"/>
<path d="M36.7286 11.6266V10.0921C34.8413 10.0948 32.9913 9.56658 31.3901 8.56771C32.8075 10.1187 34.6739 11.1882 36.7286 11.6269M26.7839 1.75545C26.7359 1.48107 26.699 1.20485 26.6734 0.92749V0H19.4158V28.8041C19.4043 32.1617 16.6778 34.8806 13.3153 34.8806C12.3621 34.882 11.4219 34.6592 10.5706 34.2302C11.6853 35.6923 13.4456 36.6361 15.4269 36.6361C18.7891 36.6361 21.5158 33.9175 21.5277 30.5595V1.7556L26.7839 1.75545ZM15.1673 17.2328V15.5989C14.5608 15.5161 13.9494 15.4746 13.3373 15.4748C5.9711 15.4748 0 21.4427 0 28.8041C0 33.4194 2.34672 37.4868 5.91284 39.8793C3.56081 37.4763 2.1117 34.1872 2.1117 30.5594C2.1117 23.2918 7.93092 17.3823 15.1673 17.2328Z" fill="#00F2EA"/>
</svg>
